<svg width="18" height="18" viewBox="0 0 18 18" fill="none" xmlns="http://www.w3.org/2000/svg">
<path d="M17.9868 3.51351C17.9868 3.47748 17.9691 3.45946 17.9691 3.42342C17.9162 3.27928 17.7926 3.15315 17.669 3.0991C17.669 3.0991 17.6514 3.0991 17.6514 3.08108L9.17872 0.018018H9.16107C9.14342 0.018018 9.10811 0 9.09046 0H9.07281H9.00221H8.9669H8.91395C8.87865 0 8.84334 0.018018 8.82569 0.018018L0.353028 3.08108C0.141211 3.15315 0 3.36937 0 3.58559V14.3964C0 14.6306 0.141211 14.8288 0.353028 14.9009L8.82569 17.964C8.87865 17.982 8.94925 18 9.00221 18H9.09046H9.10811C9.12577 18 9.14342 17.982 9.16107 17.982L17.6337 14.9189C17.8456 14.8468 17.9868 14.6306 17.9868 14.4144V3.6036V3.56757C18.0044 3.54955 18.0044 3.53153 17.9868 3.51351ZM1.05918 3.98198L9.00251 1.11714L11.2972 1.94597L4.05992 4.5586C3.8481 4.63067 3.70689 4.84689 3.70689 5.0631V7.00905C3.70689 7.24328 3.8481 7.44148 4.05992 7.51356L5.17194 7.92795C5.4014 8.01804 5.6485 7.83786 5.6485 7.58561V5.7838C5.6485 5.54957 5.78971 5.35137 6.00153 5.2793L13.3445 2.68471L15.8863 3.6036L8.82575 6.16216H8.8081C8.61394 6.23423 8.47272 6.43243 8.47272 6.66667V16.7205L1.05914 14.0358L1.05918 3.98198ZM16.9454 14.0358L9.53185 16.7205V7.04476L16.9454 4.36005V14.0358Z" fill="#6C777A"/>
</svg>
