<svg width="25" height="20" viewBox="0 0 25 20" xmlns="http://www.w3.org/2000/svg">
    <path fill-rule="evenodd" clip-rule="evenodd"
        d="M17.2075 14.223H20.8539C21.9794 14.223 22.9336 13.5063 23.2472 12.4253L24.7871 7.1143C25.0126 6.33711 24.8728 5.57098 24.3864 4.92378C23.9 4.27659 23.2036 3.92921 22.3947 3.92921H9.32812C8.61143 3.92921 7.9828 4.20236 7.51013 4.71448L6.27302 0.448437C6.19468 0.177723 5.94745 0.00169079 5.67916 0.00169079V0H1.45819C1.11552 0 0.836914 0.277851 0.836914 0.621272C0.836914 0.963939 1.11476 1.24254 1.45819 1.24254H5.2153L8.5086 12.5994C8.53284 12.6833 8.57323 12.7577 8.62489 12.8207C9.03369 13.6786 9.88528 14.2249 10.8678 14.2249H17.207L17.2075 14.223ZM20.4248 15.8486C21.5714 15.8486 22.5013 16.7777 22.5013 17.9243C22.5013 19.0708 21.5722 20 20.4248 20C19.2783 20 18.3491 19.0708 18.3491 17.9243C18.3491 16.7777 19.2783 15.8486 20.4248 15.8486ZM11.5694 15.8486C12.7159 15.8486 13.6459 16.7777 13.6459 17.9243C13.6459 19.0708 12.7167 20 11.5694 20C10.4228 20 9.49366 19.0708 9.49366 17.9243C9.49366 16.7777 10.4228 15.8486 11.5694 15.8486Z" />
</svg>