<svg width="21" height="20" viewBox="0 0 21 20" xmlns="http://www.w3.org/2000/svg">
    <path
        d="M0.69753 0C0.535936 0 0.405762 0.140114 0.405762 0.314209V4.97714C0.405762 5.15124 0.535936 5.29135 0.69753 5.29135H5.4052C5.56679 5.29135 5.69697 5.15124 5.69697 4.97714V0.314209C5.69697 0.14011 5.56679 0 5.4052 0H0.69753ZM8.28168 0C8.12008 0 7.98991 0.140114 7.98991 0.314209V4.97714C7.98991 5.15124 8.12008 5.29135 8.28168 5.29135H12.9893C13.1509 5.29135 13.2811 5.15124 13.2811 4.97714V0.314209C13.2811 0.14011 13.1509 0 12.9893 0H8.28168ZM15.8658 0C15.7042 0 15.5741 0.140114 15.5741 0.314209V4.97714C15.5741 5.15124 15.7042 5.29135 15.8658 5.29135H20.5735C20.7351 5.29135 20.8653 5.15124 20.8653 4.97714V0.314209C20.8653 0.14011 20.7351 0 20.5735 0H15.8658ZM0.69753 7.35432C0.535936 7.35432 0.405762 7.49444 0.405762 7.66853V12.3315C0.405762 12.5056 0.535936 12.6457 0.69753 12.6457H5.4052C5.56679 12.6457 5.69697 12.5056 5.69697 12.3315V7.66853C5.69697 7.49443 5.56679 7.35432 5.4052 7.35432H0.69753ZM8.28168 7.35432C8.12008 7.35432 7.98991 7.49444 7.98991 7.66853V12.3315C7.98991 12.5056 8.12008 12.6457 8.28168 12.6457H12.9893C13.1509 12.6457 13.2811 12.5056 13.2811 12.3315V7.66853C13.2811 7.49443 13.1509 7.35432 12.9893 7.35432H8.28168ZM15.8658 7.35432C15.7042 7.35432 15.5741 7.49444 15.5741 7.66853V12.3315C15.5741 12.5056 15.7042 12.6457 15.8658 12.6457H20.5735C20.7351 12.6457 20.8653 12.5056 20.8653 12.3315V7.66853C20.8653 7.49443 20.7351 7.35432 20.5735 7.35432H15.8658ZM0.69753 14.7086C0.535936 14.7086 0.405762 14.8488 0.405762 15.0229V19.6858C0.405762 19.8599 0.535936 20 0.69753 20H5.4052C5.56679 20 5.69697 19.8599 5.69697 19.6858V15.0229C5.69697 14.8488 5.56679 14.7086 5.4052 14.7086H0.69753ZM8.28168 14.7086C8.12008 14.7086 7.98991 14.8488 7.98991 15.0229V19.6858C7.98991 19.8599 8.12008 20 8.28168 20H12.9893C13.1509 20 13.2811 19.8599 13.2811 19.6858V15.0229C13.2811 14.8488 13.1509 14.7086 12.9893 14.7086H8.28168ZM15.8658 14.7086C15.7042 14.7086 15.5741 14.8488 15.5741 15.0229V19.6858C15.5741 19.8599 15.7042 20 15.8658 20H20.5735C20.7351 20 20.8653 19.8599 20.8653 19.6858V15.0229C20.8653 14.8488 20.7351 14.7086 20.5735 14.7086H15.8658Z" />
</svg>