<svg width="19" height="20" viewBox="0 0 19 20" fill="none" xmlns="http://www.w3.org/2000/svg">
<path d="M12.7878 13.7929C13.0092 13.7929 13.2232 13.6798 13.3438 13.478C13.5283 13.1704 13.4274 12.772 13.1224 12.5873L9.72986 10.5503V6.59439C9.72986 6.23521 9.43949 5.94485 9.08032 5.94485C8.72115 5.94485 8.43079 6.23522 8.43079 6.59439V10.9194C8.43079 11.1482 8.55126 11.3574 8.74569 11.4755L12.4532 13.6995C12.559 13.7633 12.6747 13.7929 12.7878 13.7929H12.7878Z" fill="#6C777A"/>
<path d="M16.7145 5.99669C15.7919 4.56978 14.4954 3.4308 12.9602 2.70487C12.6355 2.5523 12.2492 2.69011 12.0967 3.01479C11.9441 3.33948 12.0819 3.72579 12.4066 3.87832C15.1153 5.16008 16.8644 7.92538 16.8644 10.9193C16.8644 15.2123 13.3733 18.7032 9.08052 18.7032C4.78771 18.7032 1.29665 15.2121 1.29665 10.9193C1.29665 6.90915 4.34479 3.5976 8.24669 3.17936L7.56764 3.85842C7.31417 4.11189 7.31417 4.52272 7.56764 4.77603C7.69308 4.90148 7.8604 4.96548 8.02514 4.96548C8.19006 4.96548 8.35721 4.90148 8.48265 4.77603L10.3156 2.94305C10.5691 2.68959 10.5691 2.27876 10.3156 2.02545L8.48028 0.190099C8.22682 -0.0633664 7.81598 -0.0633664 7.56267 0.190099C7.30921 0.443565 7.30921 0.854395 7.56267 1.10771L8.32292 1.86795C3.67096 2.25442 0 6.16608 0 10.9193C0 15.9257 4.07399 20 9.08074 20C14.0875 20 18.1615 15.926 18.1615 10.9193C18.1615 9.16505 17.6621 7.4651 16.715 5.99668L16.7145 5.99669Z" fill="#6C777A"/>
</svg>
