<svg width="20" height="18" viewBox="0 0 20 18" fill="none" xmlns="http://www.w3.org/2000/svg">
<path d="M14.1831 14.6768C14.9443 14.1159 15.9291 14.0521 16.7381 14.4238C16.9365 14.1775 17.1186 13.9193 17.2985 13.6458C16.7057 12.9903 16.4961 12.0563 16.7669 11.1907C17.0128 10.3076 17.746 9.65681 18.6027 9.47942C18.6154 9.32182 18.6236 9.16465 18.6236 8.99998C18.6236 8.83175 18.615 8.67136 18.6018 8.51029C17.7347 8.32828 16.9826 7.71918 16.6968 6.82122L16.6945 6.81399L16.6946 6.81398C16.4208 5.91416 16.6319 4.99255 17.2328 4.3425C17.0622 4.07892 16.8743 3.82327 16.6689 3.57552C15.8662 3.94908 14.9054 3.88073 14.1211 3.33171L14.1151 3.32754L14.1093 3.32322C13.346 2.76085 12.989 1.86649 13.0806 0.981478C12.7818 0.859818 12.4831 0.75988 12.1741 0.684569C11.7362 1.47394 10.8752 1.96483 9.96505 1.96483C9.02312 1.96483 8.20292 1.45293 7.77273 0.705121C7.46501 0.790146 7.15785 0.890337 6.8555 1.0018C6.94142 1.85672 6.61241 2.76603 5.81496 3.32754C5.05956 3.88075 4.08565 3.94609 3.28185 3.58345C3.10001 3.81987 2.92427 4.07034 2.76171 4.33492C3.36983 4.99333 3.5857 5.94114 3.30824 6.81753C3.02684 7.73719 2.25879 8.35658 1.40217 8.52361C1.38894 8.68938 1.3804 8.85036 1.3804 9.00002C1.3804 9.15374 1.38941 9.31942 1.40326 9.48994C2.26993 9.67224 3.02151 10.2812 3.3071 11.1788L3.3094 11.186L3.30935 11.186C3.58318 12.0858 3.37206 13.0074 2.77117 13.6575C2.94178 13.9211 3.12966 14.1767 3.33503 14.4245C4.13778 14.0509 5.09857 14.1193 5.88285 14.6683L5.88882 14.6725L5.89468 14.6768C6.65793 15.2391 7.01493 16.1335 6.92339 17.0185C7.22214 17.1402 7.52087 17.2401 7.82987 17.3154C8.26772 16.5261 9.12876 16.0352 10.0389 16.0352C10.948 16.0352 11.7917 16.5458 12.2309 17.2992C12.5449 17.214 12.8483 17.1129 13.1512 16.9991C13.0715 16.1344 13.431 15.2309 14.1831 14.6768ZM14.1831 14.6768L14.539 15.1598M14.1831 14.6768L14.539 15.1598M14.539 15.1598C15.2399 14.6434 16.1988 14.6803 16.8628 15.1967L13.8381 17.373C13.5799 16.5984 13.8381 15.6762 14.539 15.1598ZM6.15608 8.99995C6.15608 11.1431 7.9045 12.8459 10.002 12.8459C12.104 12.8459 13.848 11.1019 13.848 8.99995C13.848 6.85677 12.0996 5.15399 10.002 5.15399C7.85886 5.15399 6.15608 6.90241 6.15608 8.99995Z" stroke="#6C777A" stroke-width="1.2"/>
</svg>
