<svg width="18" height="20" viewBox="0 0 18 20" fill="none" xmlns="http://www.w3.org/2000/svg">
<path d="M1.34002 7.17566H4.05825C4.38445 7.17566 4.64825 7.43973 4.64825 7.76567C4.64825 8.09187 4.38418 8.35567 4.05825 8.35567H1.93211V18.0703H16.0689V8.35567H13.9427C13.6165 8.35567 13.3527 8.0916 13.3527 7.76567C13.3527 7.43946 13.6168 7.17566 13.9427 7.17566H16.661C16.9872 7.17566 17.251 7.43973 17.251 7.76567V18.6604C17.251 18.9866 16.9869 19.2504 16.661 19.2504H1.33987C1.01366 19.2504 0.749866 18.9863 0.749866 18.6604V7.76567C0.749866 7.43946 1.01393 7.17566 1.33987 7.17566H1.34002Z" fill="black" stroke="#141414" stroke-width="0.5"/>
<path d="M9.59066 2.76507V9.58204C9.59066 9.90798 9.32687 10.172 9.00067 10.1721L9.59066 2.76507ZM9.59066 2.76507L11.832 5.00644L11.8334 5.00783L11.8334 5.00783C12.0622 5.23306 12.4366 5.24115 12.669 5.00505C12.896 4.77444 12.898 4.40123 12.6676 4.17086L12.6676 4.1708L9.41968 0.925014C9.36114 0.863788 9.29304 0.82315 9.22916 0.795776L9.22461 0.793826L9.22459 0.793871C9.08038 0.735417 8.92093 0.735418 8.77671 0.79387L8.76776 0.7975L8.76783 0.797671C8.70691 0.82515 8.64176 0.864872 8.5839 0.92273L5.33578 4.17086L5.33439 4.17224L5.3344 4.17225C5.10738 4.40286 5.1054 4.77607 5.33578 5.00644C5.44984 5.1205 5.60197 5.1797 5.75253 5.1797C5.90309 5.1797 6.05522 5.12051 6.16928 5.00644L8.41066 2.76507V9.58204C8.41066 9.90798 8.67445 10.172 9.00066 10.1721L9.59066 2.76507Z" fill="black" stroke="#141414" stroke-width="0.5"/>
</svg>
