<svg width="18" height="17" viewBox="0 0 18 17" fill="none" xmlns="http://www.w3.org/2000/svg">
<path d="M0.00728989 6.67892C0.00728989 6.6539 0 6.63072 0 6.60552V6.60569C0.00331306 6.58117 0.00795174 6.55715 0.0142479 6.5333C0.0137501 6.50794 0.0150757 6.48241 0.0178928 6.45721L1.06457 2.27038V2.27021C1.22659 1.62101 1.59767 1.04509 2.11901 0.633717C2.64036 0.222541 3.28232 -0.000515092 3.94281 8.93192e-07H14.0572C14.7178 -0.000502967 15.3596 0.222554 15.881 0.633889C16.4025 1.04523 16.7734 1.62118 16.9354 2.27051L17.9821 6.45752C17.9849 6.48271 17.9862 6.50824 17.9858 6.53377C17.992 6.55745 17.9967 6.58164 18 6.606C18 6.63102 17.9932 6.6542 17.9927 6.67923L17.9901 6.70728L17.9899 6.70711C17.9707 7.39492 17.747 8.06058 17.3479 8.61703V14.6941C17.3474 15.1729 17.1596 15.6319 16.8256 15.9706C16.4918 16.309 16.039 16.4995 15.5667 16.5H2.43317C1.96085 16.4995 1.50812 16.309 1.17427 15.9706C0.840288 15.632 0.652412 15.1729 0.651945 14.6941V8.61703C0.252859 8.06058 0.0289001 7.39457 0.00981522 6.70677L0.00728989 6.67892ZM2.21609 2.56751L1.19295 6.66095C1.21432 7.45174 1.64606 8.17227 2.32839 8.55591C3.01077 8.93937 3.84222 8.92896 4.51501 8.52836C5.18776 8.12777 5.60177 7.39663 5.60393 6.60567C5.60393 6.59777 5.60807 6.59122 5.6084 6.58333C5.60873 6.57544 5.60509 6.56922 5.60575 6.56149L5.99424 1.20384H3.94282L3.94266 1.20401C3.54622 1.20368 3.16104 1.33771 2.84809 1.58479C2.53532 1.83186 2.31284 2.1777 2.2161 2.56753L2.21609 2.56751ZM10.8156 1.20432H8.95929C8.93328 1.20818 8.9071 1.21003 8.88076 1.21019C8.86966 1.21019 8.85989 1.20499 8.84895 1.20432H7.18487L6.79307 6.61442L6.7929 6.61426C6.7929 7.41395 7.21369 8.15297 7.89671 8.55273C8.57972 8.95265 9.42131 8.95265 10.1044 8.55273C10.7874 8.15297 11.2082 7.41395 11.2082 6.61426L10.8156 1.20432ZM15.7843 2.56751C15.6874 2.17766 15.4649 1.83201 15.1522 1.5849C14.8392 1.33799 14.4541 1.20395 14.0576 1.20429H12.0062L12.3947 6.56194C12.3953 6.56967 12.3917 6.57622 12.392 6.58378C12.3922 6.59117 12.3965 6.59755 12.3965 6.60561C12.3973 7.39756 12.8112 8.13005 13.4846 8.53131C14.158 8.93274 14.9906 8.94299 15.6735 8.55835C16.3564 8.17388 16.7877 7.45182 16.8076 6.66004L15.7843 2.56751ZM2.43365 15.296H15.5672C15.7252 15.2977 15.8772 15.2349 15.9888 15.1217C16.1006 15.0083 16.1626 14.8543 16.1609 14.694V9.64726C15.6818 9.90659 15.1477 10.0442 14.6047 10.048C13.4832 10.0472 12.4343 9.48465 11.8028 8.54474C11.1716 9.48534 10.1225 10.0482 9.00047 10.0482C7.87842 10.0482 6.82928 9.48534 6.1981 8.54474C5.56657 9.48448 4.51794 10.0472 3.3964 10.048C2.85334 10.0442 2.31927 9.90659 1.84016 9.64726V14.694C1.83851 14.8543 1.90047 15.0083 2.01213 15.1215C2.12378 15.2349 2.2757 15.2977 2.43374 15.296H2.43365Z" fill="#32735F"/>
</svg>
