<svg width="14" height="20" viewBox="0 0 14 20" fill="none" xmlns="http://www.w3.org/2000/svg">
<path fill-rule="evenodd" clip-rule="evenodd" d="M1.57127 4.59206C2.52238 3.67958 3.34552 2.62458 4.13536 1.59615C4.30464 1.37416 4.26113 1.0522 4.02864 0.895129C3.80586 0.720831 3.48508 0.764139 3.32569 0.969005C2.56112 1.96634 1.76691 2.99211 0.85734 3.86006C0.662341 4.04436 0.66062 4.36323 0.856361 4.56759C1.05192 4.77185 1.3761 4.77626 1.57127 4.59206Z" fill="#FFCB3B"/>
<path fill-rule="evenodd" clip-rule="evenodd" d="M4.16448 10.5195C7.04539 9.83056 9.81512 8.78052 12.7262 8.15465C12.9938 8.10361 13.1616 7.83509 13.0938 7.56755C13.0258 7.2999 12.755 7.12081 12.4775 7.18897C9.56088 7.81167 6.78583 8.85865 3.89943 9.54445C3.62619 9.61507 3.46553 9.88762 3.53815 10.1579C3.62048 10.411 3.89125 10.5902 4.16448 10.5195Z" fill="#FFCB3B"/>
<path fill-rule="evenodd" clip-rule="evenodd" d="M9.419 17.9612C8.32341 17.3972 7.22788 16.833 6.13212 16.2689C5.88797 16.128 5.58072 16.2248 5.45415 16.4714C5.32775 16.7181 5.43675 17.0093 5.68108 17.1504C6.77844 17.7154 7.87556 18.2805 8.97274 18.8454C9.22679 18.9693 9.53275 18.8718 9.65791 18.6243C9.77318 18.394 9.67286 18.0849 9.419 17.9612Z" fill="#FFCB3B"/>
</svg>
